<svg width="34" height="33" viewBox="0 0 34 33" fill="none" xmlns="http://www.w3.org/2000/svg">
    <path d="M18.8656 4.35834L4.48106 4.35834C2.44083 4.35834 0.786896 6.01212 0.786896 8.05216V29.1474C0.786896 31.1875 2.44083 32.8412 4.48106 32.8412H25.5756C27.6159 32.8412 29.2698 31.1875 29.2698 29.1474V14.7765C29.2698 13.8045 28.4818 13.0166 27.5098 13.0166C26.5377 13.0166 25.7497 13.8045 25.7497 14.7765V29.1474C25.7497 29.2436 25.6718 29.3215 25.5756 29.3215C25.5756 29.3215 19.8859 29.3215 17.0411 29.3215C12.8544 29.3215 4.48106 29.3215 4.48106 29.3215C4.38492 29.3215 4.30699 29.2436 4.30699 29.1474V8.05216C4.30699 7.95603 4.38492 7.87811 4.48106 7.87811H18.8656C19.8376 7.87811 20.6256 7.09018 20.6256 6.11822C20.6256 5.14626 19.8376 4.35834 18.8656 4.35834Z" fill="white"/>
    <path fill-rule="evenodd" clip-rule="evenodd" d="M32.1382 9.25711C32.723 9.11056 33.0176 8.52435 33.0176 7.93814V2.07608C33.0176 1.19677 32.4299 0.610565 31.552 0.610565H25.69C24.8107 0.610565 24.2245 1.19677 24.2245 2.07608C24.2245 2.51574 24.3695 2.80884 24.6627 3.10194L25.9831 4.42091C26.1282 4.56746 26.1282 4.86056 25.9831 5.00711L15.5779 15.4123C14.8452 16.145 14.8452 17.3174 15.5779 18.0502C16.3107 18.783 17.4831 18.783 18.2158 18.0502L28.621 7.64504C28.7661 7.49849 29.0592 7.49849 29.2072 7.64504L30.5247 8.96401C30.8193 9.25711 31.1124 9.40366 31.552 9.40366C31.6971 9.40366 31.9902 9.40366 32.1382 9.25711Z" fill="white"/>
    </svg>
    